HIERARCHY
ROOT Hips
{
  OFFSET 365.14 88.179 197.519
  CHANNELS 6 Xposition Yposition Zposition Zrotation Xrotation Yrotation
  JOINT RightUpLeg
  {
    OFFSET -9.25084 -1.53971 -0.0324706
    CHANNELS 3 Zrotation Xrotation Yrotation
    JOINT RightLeg
    {
      OFFSET 0.0147984 -41.8767 0.0743683
      CHANNELS 3 Zrotation Xrotation Yrotation
      JOINT RightFoot
      {
        OFFSET 0.58129 -42.7665 -0.0966173
        CHANNELS 3 Zrotation Xrotation Yrotation
        End Site
        {
          OFFSET 0 -7.69 17.5
        }
      }
    }
  }
  JOINT LeftUpLeg
  {
    OFFSET 9.27183 -1.63567 0.0208533
    CHANNELS 3 Zrotation Xrotation Yrotation
    JOINT LeftLeg
    {
      OFFSET 0.0380064 -41.894 -0.0332375
      CHANNELS 3 Zrotation Xrotation Yrotation
      JOINT LeftFoot
      {
        OFFSET -0.00137207 -40.7578 0.276477
        CHANNELS 3 Zrotation Xrotation Yrotation
        End Site
        {
          OFFSET 0 -7.69 17.5
        }
      }
    }
  }
  JOINT Spine
  {
    OFFSET 0.0273715 14.2953 0.0132618
    CHANNELS 3 Zrotation Xrotation Yrotation
    JOINT Spine1
    {
      OFFSET 0.0356242 9.71545 0.0178671
      CHANNELS 3 Zrotation Xrotation Yrotation
      JOINT Spine2
      {
        OFFSET 0.0275401 10.1205 0.00234803
        CHANNELS 3 Zrotation Xrotation Yrotation
        JOINT Spine3
        {
          OFFSET 0.0388833 9.71499 0.00573168
          CHANNELS 3 Zrotation Xrotation Yrotation
          JOINT Neck
          {
            OFFSET 0.0812761 10.3796 0.11061
            CHANNELS 3 Zrotation Xrotation Yrotation
            JOINT Head
            {
              OFFSET 0.0694951 9.4737 0.0873993
              CHANNELS 3 Zrotation Xrotation Yrotation
              End Site
              {
                OFFSET 0 15.95 0
              }
            }
          }
          JOINT RightShoulder
          {
            OFFSET -3.16911 6.92878 0.0176909
            CHANNELS 3 Zrotation Xrotation Yrotation
            JOINT RightArm
            {
              OFFSET -12.7939 0.0472484 0.0511932
              CHANNELS 3 Zrotation Xrotation Yrotation
              JOINT RightForeArm
              {
                OFFSET -26.5086 -0.00989181 0.0576382
                CHANNELS 3 Zrotation Xrotation Yrotation
                JOINT RightHand
                {
                  OFFSET -26.0357 0.339815 -0.212656
                  CHANNELS 3 Zrotation Xrotation Yrotation
                  JOINT RightHandThumb1
                  {
                    OFFSET -2.48905 0.190105 3.12053
                    CHANNELS 3 Zrotation Xrotation Yrotation
                    JOINT RightHandThumb2
                    {
                      OFFSET -3.68274 0 0
                      CHANNELS 3 Zrotation Xrotation Yrotation
                      JOINT RightHandThumb3
                      {
                        OFFSET -2.55832 0 0
                        CHANNELS 3 Zrotation Xrotation Yrotation
                        End Site
                        {
                          OFFSET -2.194 0 0
                        }
                      }
                    }
                  }
                  JOINT RightInHandIndex
                  {
                    OFFSET -3.22368 0.508421 1.97842
                    CHANNELS 3 Zrotation Xrotation Yrotation
                    JOINT RightHandIndex1
                    {
                      OFFSET -5.21684 -0.091368 0.999158
                      CHANNELS 3 Zrotation Xrotation Yrotation
                      JOINT RightHandIndex2
                      {
                        OFFSET -3.61937 0 0
                        CHANNELS 3 Zrotation Xrotation Yrotation
                        JOINT RightHandIndex3
                        {
                          OFFSET -2.0521 0 0
                          CHANNELS 3 Zrotation Xrotation Yrotation
                          End Site
                          {
                            OFFSET -1.805 0 0
                          }
                        }
                      }
                    }
                  }
                  JOINT RightInHandMiddle
                  {
                    OFFSET -3.38211 0.517263 0.756737
                    CHANNELS 3 Zrotation Xrotation Yrotation
                    JOINT RightHandMiddle1
                    {
                      OFFSET -5.17411 -0.084 0.313895
                      CHANNELS 3 Zrotation Xrotation Yrotation
                      JOINT RightHandMiddle2
                      {
                        OFFSET -3.94947 0 0
                        CHANNELS 3 Zrotation Xrotation Yrotation
                        JOINT RightHandMiddle3
                        {
                          OFFSET -2.47579 0 0
                          CHANNELS 3 Zrotation Xrotation Yrotation
                          End Site
                          {
                            OFFSET -1.975 0 0
                          }
                        }
                      }
                    }
                  }
                  JOINT RightInHandRing
                  {
                    OFFSET -3.36516 0.537895 -0.128947
                    CHANNELS 3 Zrotation Xrotation Yrotation
                    JOINT RightHandRing1
                    {
                      OFFSET -4.63474 -0.022105 -0.478947
                      CHANNELS 3 Zrotation Xrotation Yrotation
                      JOINT RightHandRing2
                      {
                        OFFSET -3.44238 0 0
                        CHANNELS 3 Zrotation Xrotation Yrotation
                        JOINT RightHandRing3
                        {
                          OFFSET -2.3881 0 0
                          CHANNELS 3 Zrotation Xrotation Yrotation
                          End Site
                          {
                            OFFSET -1.857 0 0
                          }
                        }
                      }
                    }
                  }
                  JOINT RightInHandPinky
                  {
                    OFFSET -3.16105 0.469368 -1.20179
                    CHANNELS 3 Zrotation Xrotation Yrotation
                    JOINT RightHandPinky1
                    {
                      OFFSET -4.14105 -0.022105 -1.09053
                      CHANNELS 3 Zrotation Xrotation Yrotation
                      JOINT RightHandPinky2
                      {
                        OFFSET -2.75653 0 0
                        CHANNELS 3 Zrotation Xrotation Yrotation
                        JOINT RightHandPinky3
                        {
                          OFFSET -1.74189 0 0
                          CHANNELS 3 Zrotation Xrotation Yrotation
                          End Site
                          {
                            OFFSET -1.645 0 0
                          }
                        }
                      }
                    }
                  }
                }
              }
            }
          }
          JOINT LeftShoulder
          {
            OFFSET 3.24184 6.89832 -0.0228965
            CHANNELS 3 Zrotation Xrotation Yrotation
            JOINT LeftArm
            {
              OFFSET 12.8376 -0.0155948 -0.0448787
              CHANNELS 3 Zrotation Xrotation Yrotation
              JOINT LeftForeArm
              {
                OFFSET 26.5019 -0.0237061 -0.00609661
                CHANNELS 3 Zrotation Xrotation Yrotation
                JOINT LeftHand
                {
                  OFFSET 25.9931 -0.0767526 0.00928659
                  CHANNELS 3 Zrotation Xrotation Yrotation
                  JOINT LeftHandThumb1
                  {
                    OFFSET 2.48905 0.190105 3.12053
                    CHANNELS 3 Zrotation Xrotation Yrotation
                    JOINT LeftHandThumb2
                    {
                      OFFSET 3.68274 0 0
                      CHANNELS 3 Zrotation Xrotation Yrotation
                      JOINT LeftHandThumb3
                      {
                        OFFSET 2.55832 0 0
                        CHANNELS 3 Zrotation Xrotation Yrotation
                        End Site
                        {
                          OFFSET 2.194 0 0
                        }
                      }
                    }
                  }
                  JOINT LeftInHandIndex
                  {
                    OFFSET 3.22368 0.508421 1.97842
                    CHANNELS 3 Zrotation Xrotation Yrotation
                    JOINT LeftHandIndex1
                    {
                      OFFSET 5.21684 -0.091368 0.999158
                      CHANNELS 3 Zrotation Xrotation Yrotation
                      JOINT LeftHandIndex2
                      {
                        OFFSET 3.61937 0 0
                        CHANNELS 3 Zrotation Xrotation Yrotation
                        JOINT LeftHandIndex3
                        {
                          OFFSET 2.0521 0 0
                          CHANNELS 3 Zrotation Xrotation Yrotation
                          End Site
                          {
                            OFFSET 1.805 0 0
                          }
                        }
                      }
                    }
                  }
                  JOINT LeftInHandMiddle
                  {
                    OFFSET 3.38211 0.517263 0.756737
                    CHANNELS 3 Zrotation Xrotation Yrotation
                    JOINT LeftHandMiddle1
                    {
                      OFFSET 5.17411 -0.084 0.313895
                      CHANNELS 3 Zrotation Xrotation Yrotation
                      JOINT LeftHandMiddle2
                      {
                        OFFSET 3.94947 0 0
                        CHANNELS 3 Zrotation Xrotation Yrotation
                        JOINT LeftHandMiddle3
                        {
                          OFFSET 2.47579 0 0
                          CHANNELS 3 Zrotation Xrotation Yrotation
                          End Site
                          {
                            OFFSET 1.975 0 0
                          }
                        }
                      }
                    }
                  }
                  JOINT LeftInHandRing
                  {
                    OFFSET 3.36516 0.537895 -0.128947
                    CHANNELS 3 Zrotation Xrotation Yrotation
                    JOINT LeftHandRing1
                    {
                      OFFSET 4.63474 -0.022105 -0.478947
                      CHANNELS 3 Zrotation Xrotation Yrotation
                      JOINT LeftHandRing2
                      {
                        OFFSET 3.44238 0 0
                        CHANNELS 3 Zrotation Xrotation Yrotation
                        JOINT LeftHandRing3
                        {
                          OFFSET 2.3881 0 0
                          CHANNELS 3 Zrotation Xrotation Yrotation
                          End Site
                          {
                            OFFSET 1.857 0 0
                          }
                        }
                      }
                    }
                  }
                  JOINT LeftInHandPinky
                  {
                    OFFSET 3.16105 0.469368 -1.20179
                    CHANNELS 3 Zrotation Xrotation Yrotation
                    JOINT LeftHandPinky1
                    {
                      OFFSET 4.14105 -0.022105 -1.09053
                      CHANNELS 3 Zrotation Xrotation Yrotation
                      JOINT LeftHandPinky2
                      {
                        OFFSET 2.75653 0 0
                        CHANNELS 3 Zrotation Xrotation Yrotation
                        JOINT LeftHandPinky3
                        {
                          OFFSET 1.74189 0 0
                          CHANNELS 3 Zrotation Xrotation Yrotation
                          End Site
                          {
                            OFFSET 1.645 0 0
                          }
                        }
                      }
                    }
                  }
                }
              }
            }
          }
        }
      }
    }
  }
}
MOTION
Frames: 3
Frame Time: 0.00833333
3.000011202569210695e+02 9.828546732837133496e-03 -2.615243320079300472e-03 -3.568682293542988632e-03 8.002428269439216396e-03 -4.189171194549087818e-02 5.847750203124947588e-02 3.815575108207810290e-02 5.457226939178866365e-02 -1.984310287365562836e-02 -1.024612471644427772e-02 3.632550829097688089e-02 2.496852202616591659e-02 -3.561951232876342521e-02 -4.033758618001041796e-02 4.351855943701739976e-02 2.919318920188422248e-02 8.190663432252197340e-02 -1.511846234169892528e-03 1.235819042583676322e-02 -3.717903844651555129e-03 -2.376420155541738438e-02 -9.175900244356102048e-03 -4.339960739627170966e-02 -2.109255630504146620e-02 1.755805990605047509e-02 7.068032353783046395e-02 -3.256335449689837843e-03 7.166028138921458172e-03 1.698392296686618286e-02 -5.960787459605980387e-03 1.441868943865425717e-02 2.801655259284373256e-02 4.226058964343945394e-03 2.154926949295948857e-03 -4.417067674908983083e-03 -4.034221839208198407e-02 -4.888586348739419607e-02 5.210854444904298999e-02 8.227784562443055116e-02 6.159617813975248185e-02 -1.143748176228772673e-01 6.072730770868259992e-02 -1.627400223989235867e-02 -2.727226487988045935e-03 -4.551923169848887812e-02 -1.268586234807110302e-01 2.120497871404482260e-02 4.534581659268916987e+00 -2.249193975614203644e+00 -4.320269626408012265e+00 2.078145959302271972e+00 6.043096777458468516e+00 2.683197970227524376e+00 0.000000000000000000e+00 0.000000000000000000e+00 0.000000000000000000e+00 1.783755554398108625e-15 -1.712384351368631502e-15 0.000000000000000000e+00 -5.003697319412413133e-15 2.428478143064104089e-15 0.000000000000000000e+00 -6.828106671008421249e-16 2.090188584717526273e-15 3.818817209332359906e-15 0.000000000000000000e+00 0.000000000000000000e+00 0.000000000000000000e+00 0.000000000000000000e+00 -8.731223087839071689e-16 -6.739646364211996424e-16 0.000000000000000000e+00 6.040033900420462214e-16 -2.117219055352233385e-15 -6.828106671008421249e-16 2.090188584717526273e-15 3.818817209332359906e-15 0.000000000000000000e+00 -8.928446528371961085e-16 4.275640268771896752e-15 0.000000000000000000e+00 4.364060181053014061e-18 -4.144746250721269760e-15 0.000000000000000000e+00 -2.800259525256890538e-15 -7.276634409274809702e-15 -6.828106671008421249e-16 2.090188584717526273e-15 3.818817209332359906e-15 0.000000000000000000e+00 0.000000000000000000e+00 0.000000000000000000e+00 0.000000000000000000e+00 -1.406367852524997035e-15 -2.391021928278965037e-15 0.000000000000000000e+00 -4.925795439932991910e-16 -2.318828444543804635e-15 -6.828106671008421249e-16 2.090188584717526273e-15 3.818817209332359906e-15 0.000000000000000000e+00 0.000000000000000000e+00 0.000000000000000000e+00 0.000000000000000000e+00 -4.036516596148054900e-16 2.117757623526617622e-15 0.000000000000000000e+00 3.040831733351852469e-15 -2.389476812375196791e-15 1.861793496641521717e-01 3.280447359842443844e-01 5.532461525052935203e-01 4.915841967526703438e-01 -2.190560358732463742e-01 -6.221492604937909343e-01 2.251560358646346321e-02 -4.180378912158785182e-02 -7.070175465268162263e-02 1.641903701714901576e-01 2.795463774115897193e-01 -5.325854446490030369e-01 0.000000000000000000e+00 0.000000000000000000e+00 0.000000000000000000e+00 -1.936048812507224182e-15 2.018913271279473082e-16 0.000000000000000000e+00 8.438951346120506853e-16 1.916167363928032511e-15 0.000000000000000000e+00 4.070385830693090453e-16 1.183969827683258324e-15 8.730576759160523563e-16 0.000000000000000000e+00 0.000000000000000000e+00 0.000000000000000000e+00 0.000000000000000000e+00 -3.123268165619317244e-15 -7.893434660709996612e-17 0.000000000000000000e+00 -1.423852908273559294e-18 -1.725531734531040474e-15 4.070385830693090453e-16 1.183969827683258324e-15 8.730576759160523563e-16 0.000000000000000000e+00 -5.196818805923801601e-16 4.463311737469814658e-15 0.000000000000000000e+00 -3.086256668764448964e-15 5.630868657550433232e-15 0.000000000000000000e+00 1.823857427943946747e-16 8.008829172907091640e-16 4.070385830693090453e-16 1.183969827683258324e-15 8.730576759160523563e-16 0.000000000000000000e+00 0.000000000000000000e+00 0.000000000000000000e+00 0.000000000000000000e+00 -3.068719179651829186e-15 6.320838203089633595e-15 0.000000000000000000e+00 -4.081820444509928495e-15 -7.459708586239896407e-16 4.070385830693090453e-16 1.183969827683258324e-15 8.730576759160523563e-16 0.000000000000000000e+00 0.000000000000000000e+00 0.000000000000000000e+00 0.000000000000000000e+00 1.717672012879838765e-17 5.661581537096861418e-15 0.000000000000000000e+00 1.892879656094091470e-15 -1.659070735768003446e-15
3.000118353005946688e+02 7.745476953267796567e-03 8.078832534087204567e-04 -1.041487218627702325e-03 -1.174915741646437826e-02 -4.240627049853134059e-03 -7.032366753525979425e-04 6.531924134174056998e-03 -8.000333461330149526e-03 -1.872190619733454103e-02 9.046510781567727866e-03 2.324038566388893917e-02 3.931554628843651755e-02 -2.200099351823659594e-02 -2.617664474769084218e-02 -4.066758911011747989e-03 -9.252332998585639789e-02 1.620169639138770712e-01 9.815196245028971755e-02 1.543028510288237676e-01 -1.506943092751101831e-01 -1.804989518055339845e-02 -2.677303076373655638e-02 -3.815579586254884848e-03 -1.988371202720216890e-02 2.462779915564248558e-03 4.154198297033533799e-02 -3.188167858238704494e-03 3.459292350115513066e-03 9.426231404547250059e-03 -6.694674426019526364e-03 8.351296852184757896e-03 1.563654560878160668e-02 3.587217647771606070e-03 9.756027207700776298e-04 -4.139072331844412776e-03 -3.590762077544255859e-02 -4.469937219233417053e-02 5.263037235580183409e-02 4.888905375813540344e-02 5.160984668520569169e-02 -1.109861163781520055e-01 3.540379227619813718e-02 -1.262531566996023813e-02 -1.266158076078547409e-03 -6.262054547537282412e-02 -2.734444026928334326e-02 -5.614135822613428722e-02 3.158578127946161551e+00 -1.580080833558007436e+00 -2.847716466501275967e+00 1.323055963988807093e+00 4.056616162172047346e+00 1.771618627508713795e+00 0.000000000000000000e+00 0.000000000000000000e+00 0.000000000000000000e+00 1.741151064677097644e-15 -1.317937973967964875e-15 0.000000000000000000e+00 -4.485380713002288047e-15 4.916997659195124680e-16 0.000000000000000000e+00 -1.460038786602736370e-15 1.340604487604065852e-15 1.956890404324655449e-15 0.000000000000000000e+00 0.000000000000000000e+00 0.000000000000000000e+00 0.000000000000000000e+00 -2.530254749862009668e-15 -2.836770268604577333e-15 0.000000000000000000e+00 1.554911487854581721e-15 -3.049569044574243630e-15 -1.460038786602736370e-15 1.340604487604065852e-15 1.956890404324655449e-15 0.000000000000000000e+00 -1.731402290647728437e-15 -1.694005346646550653e-15 0.000000000000000000e+00 -2.521134892435461232e-15 -7.533872215259410482e-15 0.000000000000000000e+00 -3.078687845790703223e-15 -4.485284144625471154e-15 -1.460038786602736370e-15 1.340604487604065852e-15 1.956890404324655449e-15 0.000000000000000000e+00 0.000000000000000000e+00 0.000000000000000000e+00 0.000000000000000000e+00 -1.597171072544417288e-15 -3.431173482675733226e-15 0.000000000000000000e+00 -1.684650238534089783e-15 -3.945997615903785575e-15 -1.460038786602736370e-15 1.340604487604065852e-15 1.956890404324655449e-15 0.000000000000000000e+00 0.000000000000000000e+00 0.000000000000000000e+00 0.000000000000000000e+00 6.780974860057711026e-16 -1.355123146161945615e-15 0.000000000000000000e+00 3.283301672507605033e-15 -2.590233470020676096e-15 1.730023531022328309e-01 2.879489354776396115e-01 4.830144133753854208e-01 -8.744375241651385078e-03 8.190036555880778057e-02 3.526431603953482652e-01 3.246269371743337184e-01 3.166393386868165266e-02 -8.914825298879389681e-01 2.192298577137904991e-01 4.224281469727448335e-01 -7.604754726773058637e-01 0.000000000000000000e+00 0.000000000000000000e+00 0.000000000000000000e+00 3.379856734361357002e-15 -3.762020295246687344e-15 0.000000000000000000e+00 3.625407245637257991e-15 1.307714600103605307e-15 0.000000000000000000e+00 -1.970051978288384998e-15 1.144062562807612000e-15 1.789492236392745965e-15 0.000000000000000000e+00 0.000000000000000000e+00 0.000000000000000000e+00 0.000000000000000000e+00 -1.136558919813678421e-15 1.435744338863055150e-15 0.000000000000000000e+00 -4.145505103325089225e-16 -2.001961677831865093e-15 -1.970051978288384998e-15 1.144062562807612000e-15 1.789492236392745965e-15 0.000000000000000000e+00 -3.958008674011902747e-16 3.274586152501921399e-15 0.000000000000000000e+00 -3.669575453011612183e-15 5.791883688506405355e-15 0.000000000000000000e+00 -8.688702070167349526e-16 2.083190283464448951e-16 -1.970051978288384998e-15 1.144062562807612000e-15 1.789492236392745965e-15 0.000000000000000000e+00 0.000000000000000000e+00 0.000000000000000000e+00 0.000000000000000000e+00 -2.653451549116597934e-15 4.444541225189882777e-15 0.000000000000000000e+00 -2.028287093572269638e-15 -4.211657420613118136e-16 -1.970051978288384998e-15 1.144062562807612000e-15 1.789492236392745965e-15 0.000000000000000000e+00 0.000000000000000000e+00 0.000000000000000000e+00 0.000000000000000000e+00 1.280948241016851725e-15 1.299162879138418807e-15 0.000000000000000000e+00 2.002566034113821311e-15 -1.498543857227619726e-15
3.000173282711686511e+02 2.972855059800898984e-03 5.297104513930010056e-03 1.024362654641160090e-03 -2.862114160539592708e-02 3.545863687593367453e-02 -6.381946365606816496e-02 -2.823149313018922385e-02 -6.780266993931781394e-02 -7.740615403805373856e-03 2.745292472558746866e-02 -1.612518757652648370e-03 3.596467844264809172e-02 -2.246822259007604308e-03 -1.066658069626745618e-04 -5.270456905206463705e-02 -1.775723970783392447e-01 1.737140776335171499e-01 1.572330150114540359e-01 2.324330991961555404e-01 -2.313592687896502686e-01 -7.307774580307151678e-03 -3.417484016087427023e-02 3.373153026329816367e-02 -1.900649414069228646e-02 -1.078822012807323372e-02 9.307745335080441773e-03 -3.716003279535559471e-03 -1.086952011989713663e-03 1.214029228074266437e-03 -7.577477576746447473e-03 -3.258427957366061799e-04 1.980003560295412642e-03 2.287813172293424839e-03 -5.689748972925424367e-04 -3.293323751733362968e-03 -2.086539089875553976e-02 -2.765854693467862183e-02 3.788504393115783853e-02 1.257259811924657869e-02 2.688104489529853300e-02 -8.715210523588008684e-02 9.274158028871656162e-03 -7.061149893486707435e-03 -1.091535554361587612e-02 -4.698304545697962187e-02 4.391347002740778743e-02 -8.962580064212755104e-02 2.845285800450463864e-01 -1.695160503678476704e-01 -5.709396770397098114e-02 -1.152217811157696808e-01 -3.118159720292459913e-02 -4.586843695607802779e-02 0.000000000000000000e+00 0.000000000000000000e+00 0.000000000000000000e+00 5.557732143607110366e-16 -6.225203463086572743e-16 0.000000000000000000e+00 -2.086228320360656051e-15 -1.393407763335078988e-15 0.000000000000000000e+00 -4.132730897559320013e-16 -4.664977409667862637e-17 -2.919376584708482510e-16 0.000000000000000000e+00 0.000000000000000000e+00 0.000000000000000000e+00 0.000000000000000000e+00 -2.631752313231463973e-15 -2.814693152526472016e-15 0.000000000000000000e+00 1.708404088873304842e-15 -1.872156076897998501e-15 -4.132730897559320013e-16 -4.664977409667862637e-17 -2.919376584708482510e-16 0.000000000000000000e+00 -1.858522883500979635e-15 -6.221105172612210249e-15 0.000000000000000000e+00 -3.750132348234234685e-15 -6.793495420249999177e-15 0.000000000000000000e+00 -2.086385840314376776e-15 1.171922356393025698e-15 -4.132730897559320013e-16 -4.664977409667862637e-17 -2.919376584708482510e-16 0.000000000000000000e+00 0.000000000000000000e+00 0.000000000000000000e+00 0.000000000000000000e+00 -1.008133959562444841e-15 -2.165274822144300348e-15 0.000000000000000000e+00 -1.862132011887874092e-15 -3.043099210676305670e-15 -4.132730897559320013e-16 -4.664977409667862637e-17 -2.919376584708482510e-16 0.000000000000000000e+00 0.000000000000000000e+00 0.000000000000000000e+00 0.000000000000000000e+00 1.648769254395439390e-15 -3.460220085588194839e-15 0.000000000000000000e+00 2.194778647806367135e-15 -1.395829862220637008e-15 1.094152171946423946e-01 1.430169053559741943e-01 2.326442968558889712e-01 -4.892489660912573424e-01 3.478878505926490949e-01 1.165160373990929088e+00 5.078803579878848895e-01 9.435620057707190533e-02 -1.370207383328527539e+00 1.767325544151199246e-01 3.311926105565524137e-01 -5.722432826635587277e-01 0.000000000000000000e+00 0.000000000000000000e+00 0.000000000000000000e+00 7.741083045340486763e-15 -6.264544423731560396e-15 0.000000000000000000e+00 4.658405773279172383e-15 -1.311451975463998598e-16 0.000000000000000000e+00 -4.086778277376772464e-15 6.305441799704339107e-16 2.238451547414137652e-15 0.000000000000000000e+00 0.000000000000000000e+00 0.000000000000000000e+00 0.000000000000000000e+00 1.234154572889344580e-15 2.171343615634622069e-15 0.000000000000000000e+00 1.776824134520690227e-16 -1.997975335686017728e-15 -4.086778277376772464e-15 6.305441799704339107e-16 2.238451547414137652e-15 0.000000000000000000e+00 1.191022477112252651e-16 -5.826074320796677763e-16 0.000000000000000000e+00 -3.378179316970201534e-15 2.995036278625062507e-15 0.000000000000000000e+00 -1.509417359473365003e-15 -4.861671600565305495e-16 -4.086778277376772464e-15 6.305441799704339107e-16 2.238451547414137652e-15 0.000000000000000000e+00 0.000000000000000000e+00 0.000000000000000000e+00 0.000000000000000000e+00 -4.250236513048507660e-16 -3.963382893775310696e-16 0.000000000000000000e+00 6.908230530934464458e-16 -1.841281833971360118e-16 -4.086778277376772464e-15 6.305441799704339107e-16 2.238451547414137652e-15 0.000000000000000000e+00 0.000000000000000000e+00 0.000000000000000000e+00 0.000000000000000000e+00 2.210160475163169487e-15 -3.394679336870038453e-15 0.000000000000000000e+00 1.839610110549284941e-15 -1.881477572057835574e-15
